{
	"accessors" : 
	[
		{
			"bufferView" : 2,
			"byteOffset" : 0,
			"componentType" : 5126,
			"count" : 16274,
			"max" : 
			[
				1,
				1,
				1,
				1
			],
			"min" : 
			[
				0.006584956776350737,
				0.006584956776350737,
				0,
				1
			],
			"name" : "accessor_color_m0-PolyPaper21_-76220",
			"type" : "VEC4"
		},
		{
			"bufferView" : 2,
			"byteOffset" : 260384,
			"componentType" : 5126,
			"count" : 336,
			"max" : 
			[
				1,
				1,
				1,
				1
			],
			"min" : 
			[
				1,
				1,
				1,
				1
			],
			"name" : "accessor_color_m1-PolyGlass24_-76226",
			"type" : "VEC4"
		},
		{
			"bufferView" : 0,
			"byteOffset" : 0,
			"componentType" : 5123,
			"count" : 23712,
			"max" : 
			[
				16273
			],
			"min" : 
			[
				0
			],
			"name" : "accessor_indices_0_m0-PolyPaper21_-76220",
			"type" : "SCALAR"
		},
		{
			"bufferView" : 0,
			"byteOffset" : 47424,
			"componentType" : 5123,
			"count" : 498,
			"max" : 
			[
				335
			],
			"min" : 
			[
				0
			],
			"name" : "accessor_indices_0_m1-PolyGlass24_-76226",
			"type" : "SCALAR"
		},
		{
			"bufferView" : 1,
			"byteOffset" : 195288,
			"componentType" : 5126,
			"count" : 16274,
			"max" : 
			[
				0.9977161,
				1,
				0.9996052
			],
			"min" : 
			[
				-0.9993303,
				-1,
				-0.9996934
			],
			"name" : "accessor_normal_m0-PolyPaper21_-76220",
			"type" : "VEC3"
		},
		{
			"bufferView" : 1,
			"byteOffset" : 394608,
			"componentType" : 5126,
			"count" : 336,
			"max" : 
			[
				0.9659261,
				0.9844242,
				0.9659261
			],
			"min" : 
			[
				-0.9659261,
				-1,
				-0.9659262
			],
			"name" : "accessor_normal_m1-PolyGlass24_-76226",
			"type" : "VEC3"
		},
		{
			"bufferView" : 1,
			"byteOffset" : 0,
			"componentType" : 5126,
			"count" : 16274,
			"max" : 
			[
				0.9108675000000001,
				2.647405,
				2.525194
			],
			"min" : 
			[
				-2.810417,
				-2.744007,
				-2.420018
			],
			"name" : "accessor_position_m0-PolyPaper21_-76220",
			"type" : "VEC3"
		},
		{
			"bufferView" : 1,
			"byteOffset" : 390576,
			"componentType" : 5126,
			"count" : 336,
			"max" : 
			[
				0.9435657,
				2.920697,
				-0.3750837
			],
			"min" : 
			[
				-1.164595,
				1.160698,
				-2.483244
			],
			"name" : "accessor_position_m1-PolyGlass24_-76226",
			"type" : "VEC3"
		}
	],
	"asset" : 
	{
		"copyright" : "Unknown",
		"generator" : "glTF 1-to-2 Upgrader for Google Blocks",
		"version" : "2.0"
	},
	"bufferViews" : 
	[
		{
			"buffer" : 0,
			"byteLength" : 48420,
			"byteOffset" : 0,
			"name" : "ushortBufferView",
			"target" : 34963
		},
		{
			"buffer" : 0,
			"byteLength" : 398640,
			"byteOffset" : 48420,
			"byteStride" : 12,
			"name" : "vec3BufferView",
			"target" : 34962
		},
		{
			"buffer" : 0,
			"byteLength" : 265760,
			"byteOffset" : 447060,
			"byteStride" : 16,
			"name" : "vec4BufferView",
			"target" : 34962
		}
	],
	"buffers" : 
	[
		{
			"byteLength" : 712820,
			"name" : "model",
			"uri" : "model.bin"
		}
	],
	"materials" : 
	[
		{
			"alphaMode" : "OPAQUE",
			"doubleSided" : false,
			"name" : "BlocksPaper",
			"pbrMetallicRoughness" : 
			{
				"baseColorFactor" : 
				[
					1,
					1,
					1,
					1
				],
				"metallicFactor" : 0,
				"roughnessFactor" : 0.6
			}
		},
		{
			"alphaMode" : "BLEND",
			"doubleSided" : false,
			"name" : "BlocksGlass",
			"pbrMetallicRoughness" : 
			{
				"baseColorFactor" : 
				[
					0.2,
					0.2,
					1,
					0.3
				],
				"metallicFactor" : 1,
				"roughnessFactor" : 0.4
			}
		},
		{
			"alphaMode" : "OPAQUE",
			"doubleSided" : true,
			"name" : "BlocksGem",
			"pbrMetallicRoughness" : 
			{
				"baseColorFactor" : 
				[
					1,
					0.4,
					1,
					1
				],
				"metallicFactor" : 0,
				"roughnessFactor" : 0.1
			}
		}
	],
	"meshes" : 
	[
		{
			"name" : "mesh_m0-PolyPaper21_-76220",
			"primitives" : 
			[
				{
					"attributes" : 
					{
						"COLOR_0" : 0,
						"NORMAL" : 4,
						"POSITION" : 6
					},
					"indices" : 2,
					"material" : 0,
					"mode" : 4
				}
			]
		},
		{
			"name" : "mesh_m1-PolyGlass24_-76226",
			"primitives" : 
			[
				{
					"attributes" : 
					{
						"COLOR_0" : 1,
						"NORMAL" : 5,
						"POSITION" : 7
					},
					"indices" : 3,
					"material" : 1,
					"mode" : 4
				}
			]
		}
	],
	"nodes" : 
	[
		{
			"matrix" : 
			[
				1,
				0,
				0,
				0,
				0,
				1,
				0,
				0,
				0,
				0,
				1,
				0,
				0,
				0,
				0,
				1
			],
			"mesh" : 0,
			"name" : "node_MeshObject1366450176-PolyPaper21"
		},
		{
			"matrix" : 
			[
				1,
				0,
				0,
				0,
				0,
				1,
				0,
				0,
				0,
				0,
				1,
				0,
				0,
				0,
				0,
				1
			],
			"mesh" : 1,
			"name" : "node_MeshObject1938529280-PolyGlass24"
		}
	],
	"scene" : 0,
	"scenes" : 
	[
		{
			"extras" : {},
			"name" : "defaultScene",
			"nodes" : 
			[
				0,
				1
			]
		}
	]
}